<?xml version="1.0" encoding="UTF-8"?>
<svg id="Livello_2" data-name="Livello 2" xmlns="http://www.w3.org/2000/svg" viewBox="0 0 416.82 350.71">
  <defs>
    <style>
      .cls-1 {
        fill: #ffe42e;
      }

      .cls-2 {
        fill: #00b3f4;
      }
    </style>
  </defs>
  <g id="Livello_1-2" data-name="Livello 1">
    <g>
      <g>
        <ellipse class="cls-1" cx="304.9" cy="220.14" rx="109.8" ry="126.58" transform="translate(-56.91 117.56) rotate(-20)"/>
        <path d="m114.96,289.27h0c23.6-98.36,77.92-163.02,146.66-188.04l86.56,237.81c-68.74,25.02-151.91,10.41-233.22-49.77h0Z"/>
        <ellipse class="cls-1" cx="304.68" cy="220.22" rx="110.03" ry="126.58" transform="translate(-56.95 117.49) rotate(-20)"/>
        <ellipse cx="331.04" cy="210.63" rx="81.95" ry="98.07" transform="translate(-52.07 125.93) rotate(-20)"/>
      </g>
      <path class="cls-1" d="m142.56,212.91c-2.87,21.3-.9,42.96,6.67,63.73s20.22,38.99,36.33,53.54c-23.43-9.93-47.09-23.51-70.6-40.91h0s0,0,0,0c6.79-28.29,16.12-53.79,27.6-76.36Z"/>
    </g>
    <path class="cls-2" d="m107.23,57.83c48.66,18.37,70.71,79.35,70.71,79.35,0,0-56.85,31.2-105.51,12.83C23.77,131.65-7.89,96.12,1.72,70.66c9.61-25.46,56.85-31.2,105.51-12.83Z"/>
    <path class="cls-2" d="m224.46,59.44c2.68,34.2-27.54,64.47-27.54,64.47,0,0-34.57-25.19-37.25-59.39C156.98,30.32,169.31,1.46,187.2.05c17.89-1.4,34.57,25.19,37.25,59.39Z"/>
  </g>
</svg>