<?xml version="1.0" encoding="UTF-8"?>
<svg id="Livello_2" data-name="Livello 2" xmlns="http://www.w3.org/2000/svg" viewBox="0 0 367.55 114.13">
  <defs>
    <style>
      .cls-1 {
        fill: #ffe42e;
      }

      .cls-2 {
        fill: #00b3f4;
      }
    </style>
  </defs>
  <g id="Livello_1-2" data-name="Livello 1">
    <path class="cls-2" d="m336.13,8.06c-10.27,6.27-12.66,21.07-12.66,21.07,0,0,14.26,4.65,24.53-1.62,10.27-6.27,15.94-15.7,12.66-21.07s-14.26-4.65-24.53,1.62Z"/>
    <path d="m86.28,111.51c0,.43-.43.64-1.27.64-1.01,0-2.55-.08-4.62-.24-2.07-.16-3.61-.24-4.62-.24-1.12,0-2.77.08-4.97.24-2.2.16-3.86.24-4.97.24-1.22,0-2.15-.66-2.79-1.99-1.7-3.61-6.53-14.78-14.49-33.51-.79-1.91-2.73-3.08-5.81-3.5-.69-.05-3.1-.08-7.24-.08-7.32,0-11.67.11-13.05.32-1.11.16-1.67,1.51-1.67,4.06,0,3.71.17,9.27.52,16.67.34,7.4.52,12.93.52,16.59,0,1.11-.53,1.67-1.59,1.67s-2.67-.12-4.81-.36c-2.15-.24-3.78-.36-4.89-.36-.9,0-2.28.08-4.14.24-1.86.16-3.24.24-4.14.24-1.33,0-1.99-.61-1.99-1.83,0-5.89.28-14.74.84-26.54.56-11.8.84-20.65.84-26.54C1.91,40.46,1.3,22.58.08,3.58L0,2.31C-.05,1.25,1.06.72,3.34.72c4.56,0,11.39-.12,20.5-.36,9.1-.24,15.9-.36,20.42-.36,11.78,0,21.22,2.81,28.33,8.44,7.85,6.21,11.78,15.02,11.78,26.42,0,7.85-1.06,14.04-3.18,18.54-2.23,4.78-6.37,9.31-12.42,13.61-1.01.69-1.51,1.35-1.51,1.99,0,.74,3.17,7.8,9.51,21.17,6.34,13.37,9.51,20.48,9.51,21.33Zm-21.81-72.19c0-9.6-2.76-16.02-8.28-19.26-4.09-2.39-11.43-3.58-22.05-3.58-8.6,0-12.97.69-13.13,2.07-.37,2.87-.56,10.53-.56,23v15.2c.16.11.5.21,1.03.32.96.11,2.52.24,4.7.4,5.04.27,10.48.4,16.32.4,14.64,0,21.97-6.18,21.97-18.54Z"/>
    <path class="cls-1" d="m164.35,69.4c0,3.93-1.7,6.55-5.09,7.88-2.28.85-18.7,2.42-49.27,4.7.69,4.67,3.26,8.65,7.72,11.94,4.25,3.13,8.81,4.7,13.69,4.7,8.38,0,16.08-2.71,23.08-8.12.85-.69,1.7-1.38,2.55-2.07.42,0,.7.05.83.16.13.11,1.13,1.95,2.99,5.53,1.86,3.58,2.79,5.51,2.79,5.77,0,.32-.43.93-1.27,1.83-7.8,8.28-17.8,12.42-30.01,12.42s-22.12-3.67-29.45-11.02c-7.32-7.35-10.98-17.15-10.98-29.41,0-10.93,3.5-20.46,10.51-28.57,7.38-8.44,16.42-12.66,27.14-12.66,9.97,0,18.31,3.66,24.99,10.98,6.53,7.11,9.79,15.76,9.79,25.95Zm-18.94-4.85c0-4.4-1.74-8.3-5.21-11.7-3.48-3.39-7.39-5.09-11.74-5.09-4.88,0-9.22,1.96-13.01,5.89-3.79,3.93-5.69,8.33-5.69,13.21,0,1.12.96,1.67,2.87,1.67,7.85,0,17.24-.8,28.18-2.39,3.08-.42,4.62-.96,4.62-1.59Z"/>
    <path d="m244.18,59.45c0,7.48-.24,11.83-.72,13.05-.8,2.39-5.09,9.37-12.89,20.93-8.01,11.83-12.79,18.07-14.33,18.7-.74.32-2.97.48-6.69.48s-5.89-.16-7-.48c-1.49-.48-6.34-6.47-14.57-17.99-8.01-11.19-12.5-18.01-13.45-20.45-1.27-3.34-1.91-8.52-1.91-15.52,0-2.17.05-5.44.16-9.79.11-4.35.16-7.61.16-9.79,0-1.17.58-1.75,1.75-1.75,1.75,0,4.36.08,7.84.24,3.47.16,6.09.24,7.84.24.96,0,1.43.53,1.43,1.59,0,1.7-.11,4.21-.32,7.52-.21,3.32-.32,5.82-.32,7.52,0,4.88.27,9.34.8,13.37.26,2.02,2.96,6.95,8.08,14.8,5.12,7.85,8.29,11.78,9.51,11.78s4.06-3.85,8.67-11.54c4.56-7.53,7-12.28,7.32-14.25.42-2.65.64-7.21.64-13.69,0-1.75-.17-4.38-.52-7.88-.35-3.5-.52-6.13-.52-7.88,0-.8.4-1.19,1.19-1.19,1.75,0,4.32-.09,7.72-.28,3.39-.19,5.94-.28,7.64-.28s2.47,7.51,2.47,22.52Z"/>
    <path d="m278.64,16.95c0,6.53-3.63,9.79-10.9,9.79s-11.06-3.26-11.06-9.79c0-2.92,1.14-5.33,3.42-7.24,2.12-1.8,4.67-2.71,7.64-2.71s5.53.93,7.68,2.79c2.15,1.86,3.22,4.25,3.22,7.16Zm-.56,21.57c0,4.09-.25,10.25-.76,18.5-.5,8.25-.76,14.45-.76,18.58,0,3.87.08,9.67.24,17.39.16,7.72.24,13.49.24,17.31,0,1.11-.48,1.67-1.43,1.67h-15.52c-1.12,0-1.67-1.09-1.67-3.26,0-3.66.09-9.17.28-16.52.19-7.35.28-12.88.28-16.59,0-4.14-.31-10.35-.92-18.62-.61-8.28-.92-14.48-.92-18.62,0-.9.56-1.35,1.67-1.35.96,0,2.43.13,4.42.4,1.99.27,3.49.4,4.5.4s2.51-.13,4.5-.4c1.99-.27,3.49-.4,4.5-.4.9,0,1.35.5,1.35,1.51Z"/>
    <path d="m367.55,39.96c0,3.87-.16,9.72-.48,17.55-.32,7.83-.48,13.7-.48,17.63s.12,9.67.36,17.39c.24,7.72.36,13.52.36,17.39,0,1.06-.51,1.75-1.51,2.07-.43.11-5.81.16-16.16.16-.64,0-1.02-1.99-1.15-5.97-.13-3.98-.44-5.97-.92-5.97-.27,0-.67.24-1.19.72-8.86,7.69-17.62,11.54-26.26,11.54-11.73,0-19.47-4.24-23.24-12.73-2.34-5.25-3.5-14.7-3.5-28.33,0-12.31.98-22.74,2.95-31.28.48-2.07,1.35-3.1,2.63-3.1,1.54,0,3.85.03,6.92.08,3.08.05,5.38.08,6.92.08,1.06,0,1.59.58,1.59,1.75,0,2.07-.35,5.52-1.04,10.35-.74,5.15-1.14,8.78-1.19,10.9-.16,3.18-.24,6.69-.24,10.51,0,9.29.66,15.52,1.99,18.7,2.28,5.73,7.35,8.6,15.2,8.6,3.34,0,7.29-1.64,11.86-4.93,4.83-3.45,7.32-6.77,7.48-9.95.26-3.98.4-17.99.4-42.02,0-2.6,1.09-3.9,3.26-3.9h13.13c1.54,0,2.31.93,2.31,2.79Z"/>
  </g>
</svg>